name ./resultDataOpenSim/trcMotMarkerGrf/sub10/grf-13-07.mot
datacolumns 19
datarows 10
range 0.98800000 1.02400000
endheader

                time	     ground_force_vx	     ground_force_vy	     ground_force_vz	     ground_force_px	     ground_force_py	     ground_force_pz	   l_ground_force_vx	   l_ground_force_vy	   l_ground_force_vz	   l_ground_force_px	   l_ground_force_py	   l_ground_force_pz	     ground_torque_x	     ground_torque_y	     ground_torque_z	   l_ground_torque_x	   l_ground_torque_y	   l_ground_torque_z	
          0.98800000	          0.00000000	          0.00000000	          0.00000000	          0.00000000	          0.00000000	          0.00000000	         -6.66474731	        758.44958692	         22.31324742	          0.01934816	         -0.05000000	         -0.02275855	          0.00000000	          0.00000000	          0.00000000	          0.00000000	         -3.74999388	          0.00000000	
          0.99200000	          0.00000000	          0.00000000	          0.00000000	          0.00000000	          0.00000000	          0.00000000	         -4.47160705	        759.88091767	         22.49122068	          0.01992506	         -0.05000000	         -0.02225838	          0.00000000	          0.00000000	          0.00000000	          0.00000000	         -3.85629384	          0.00000000	
          0.99600000	          0.00000000	          0.00000000	          0.00000000	          0.00000000	          0.00000000	          0.00000000	         -2.18735782	        761.60989755	         22.64134820	          0.02049197	         -0.05000000	         -0.02176218	          0.00000000	          0.00000000	          0.00000000	          0.00000000	         -3.96104386	          0.00000000	
          1.00000000	          0.00000000	          0.00000000	          0.00000000	          0.00000000	          0.00000000	          0.00000000	          0.24920964	        763.68987873	         22.73266412	          0.02104218	         -0.05000000	         -0.02127768	          0.00000000	          0.00000000	          0.00000000	          0.00000000	         -4.06518290	          0.00000000	
          1.00400000	          0.00000000	          0.00000000	          0.00000000	          0.00000000	          0.00000000	          0.00000000	          2.89952901	        766.21707720	         22.74929502	          0.02156094	         -0.05000000	         -0.02082298	          0.00000000	          0.00000000	          0.00000000	          0.00000000	         -4.16959653	          0.00000000	
          1.00800000	          0.00000000	          0.00000000	          0.00000000	          0.00000000	          0.00000000	          0.00000000	          5.81166019	        769.26853837	         22.68821825	          0.02202483	         -0.05000000	         -0.02041023	          0.00000000	          0.00000000	          0.00000000	          0.00000000	         -4.27497669	          0.00000000	
          1.01200000	          0.00000000	          0.00000000	          0.00000000	          0.00000000	          0.00000000	          0.00000000	          9.03068192	        772.85583287	         22.55290131	          0.02240577	         -0.05000029	         -0.02004704	          0.00000000	          0.00000000	          0.00000000	          0.00000000	         -4.38160791	          0.00000000	
          1.01600000	          0.00000000	          0.00000000	          0.00000000	          0.00000000	          0.00000000	          0.00000000	         12.58923533	        776.92722609	         22.34972549	          0.02268961	         -0.05000089	         -0.01973589	          0.00000000	          0.00000000	          0.00000000	          0.00000000	         -4.48913483	          0.00000000	
          1.02000000	          0.00000000	          0.00000000	          0.00000000	          0.00000000	          0.00000000	          0.00000000	         16.48475670	        781.37611834	         22.08785610	          0.02288067	         -0.05000100	         -0.01947659	          0.00000000	          0.00000000	          0.00000000	          0.00000000	         -4.59644669	          0.00000000	
          1.02400000	          0.00000000	          0.00000000	          0.00000000	          0.00000000	          0.00000000	          0.00000000	         20.68170593	        786.04225281	         21.78366264	          0.02299340	         -0.05000100	         -0.01925937	          0.00000000	          0.00000000	          0.00000000	          0.00000000	         -4.70177105	          0.00000000	
